# xmcd CD database file
# Copyright (C) 1993-1998 Ti Kan
#
# Track frame offsets:
# 170
# 26310
# 45105
# 59112
# 74562
# 94155
# 114810
# 135072
#
# Disc length: 2074 seconds
# Revision: 0
# Processed by: cddbd v1.4b41PL1 Copyright (c) Steve Scherf et al.
# Submitted via: CDSpectrumPro v3.4.340
#
DISCID=5d081808
DTITLE=Bobby Rush - I Ain't Studdin' You - Bobby Rush
DYEAR=1900
DGENRE=
TTITLE0=I Ain't Studdin' You
TTITLE1=You, You, You (Know What To Do)
TTITLE2=Hand Jive
TTITLE3=Blues Singer
TTITLE4=Thank You (For What You Done)
TTITLE5=You Make Me Feel So Good
TTITLE6=Money Honey
TTITLE7=Time To Hit The Road Again
EXTD=
EXTT0=
EXTT1=
EXTT2=
EXTT3=
EXTT4=
EXTT5=
EXTT6=
EXTT7=
PLAYORDER=
